STARTFONT 2.1
COMMENT
COMMENT  Copyright (c) 1999, Thomas A. Fine
COMMENT
COMMENT  License to copy and distribute for both commercial and
COMMENT  non-commercial use is herby granted, provided this notice
COMMENT  is preserved.
COMMENT
COMMENT  Email to my last name at head.cfa.harvard.edu
COMMENT  http://hea-www.harvard.edu/~fine/
COMMENT
COMMENT  Produced with bdfedit, a tcl/tk font editing program
COMMENT  written by Thomas A. Fine
COMMENT
FONT -Fine-Radon-Medium-R-Wide--13-130-72-72-p-65--ascii
SIZE 13 72 72
FONTBOUNDINGBOX 9 12 0 -2
STARTPROPERTIES 10
FOUNDRY "Fine"
FAMILY_NAME ""
WEIGHT_NAME "Medium"
SLANT "R"
SETWIDTH_NAME "Wide"
SPACING "c"
CHARSET_REGISTRY "ISO-8859"
CHARSET_ENCODING "1"
FONT_ASCENT  10
FONT_DESCENT 2
ENDPROPERTIES
CHARS 95
STARTCHAR C040
ENCODING 32
SWIDTH 692 0
DWIDTH 9 0
BBX 9 12 0 -2
BITMAP
0000
0000
0000
0000
0000
0000
0000
0000
0000
0000
0000
0000
ENDCHAR
STARTCHAR C041
ENCODING 33
SWIDTH 692 0
DWIDTH 9 0
BBX 9 12 0 -2
BITMAP
0000
0800
0800
0800
0800
0800
0800
0000
0800
0800
0000
0000
ENDCHAR
STARTCHAR C042
ENCODING 34
SWIDTH 692 0
DWIDTH 9 0
BBX 9 12 0 -2
BITMAP
0000
1400
1400
1400
1400
0000
0000
0000
0000
0000
0000
0000
ENDCHAR
STARTCHAR C043
ENCODING 35
SWIDTH 692 0
DWIDTH 9 0
BBX 9 12 0 -2
BITMAP
0000
2200
2200
aa80
2200
2200
2200
aa80
2200
2200
0000
0000
ENDCHAR
STARTCHAR C044
ENCODING 36
SWIDTH 692 0
DWIDTH 9 0
BBX 9 12 0 -2
BITMAP
0800
3f00
4000
4800
4000
3e00
0100
0900
0100
7e00
0800
0000
ENDCHAR
STARTCHAR C045
ENCODING 37
SWIDTH 692 0
DWIDTH 9 0
BBX 9 12 0 -2
BITMAP
0000
3100
4900
4a00
3400
0800
1600
2900
4900
4600
0000
0000
ENDCHAR
STARTCHAR C046
ENCODING 38
SWIDTH 692 0
DWIDTH 9 0
BBX 9 12 0 -2
BITMAP
0000
3000
4800
4800
2000
1000
4800
4500
4200
3d00
0000
0000
ENDCHAR
STARTCHAR C047
ENCODING 39
SWIDTH 692 0
DWIDTH 9 0
BBX 9 12 0 -2
BITMAP
0000
1000
1000
1000
6000
0000
0000
0000
0000
0000
0000
0000
ENDCHAR
STARTCHAR C050
ENCODING 40
SWIDTH 692 0
DWIDTH 9 0
BBX 9 12 0 -2
BITMAP
0000
0400
0800
0800
0800
0800
0800
0800
0800
0400
0000
0000
ENDCHAR
STARTCHAR C051
ENCODING 41
SWIDTH 692 0
DWIDTH 9 0
BBX 9 12 0 -2
BITMAP
0000
1000
0800
0800
0800
0800
0800
0800
0800
1000
0000
0000
ENDCHAR
STARTCHAR C052
ENCODING 42
SWIDTH 692 0
DWIDTH 9 0
BBX 9 12 0 -2
BITMAP
0000
0800
4900
2a00
0800
0800
2a00
4900
0800
0000
0000
0000
ENDCHAR
STARTCHAR C053
ENCODING 43
SWIDTH 692 0
DWIDTH 9 0
BBX 9 12 0 -2
BITMAP
0000
0000
0800
0800
0800
6b00
0800
0800
0800
0000
0000
0000
ENDCHAR
STARTCHAR C054
ENCODING 44
SWIDTH 692 0
DWIDTH 9 0
BBX 9 12 0 -2
BITMAP
0000
0000
0000
0000
0000
0000
0000
0000
0800
0800
3000
0000
ENDCHAR
STARTCHAR C055
ENCODING 45
SWIDTH 692 0
DWIDTH 9 0
BBX 9 12 0 -2
BITMAP
0000
0000
0000
0000
0000
7f00
0000
0000
0000
0000
0000
0000
ENDCHAR
STARTCHAR C056
ENCODING 46
SWIDTH 692 0
DWIDTH 9 0
BBX 9 12 0 -2
BITMAP
0000
0000
0000
0000
0000
0000
0000
0000
1000
1000
0000
0000
ENDCHAR
STARTCHAR C057
ENCODING 47
SWIDTH 692 0
DWIDTH 9 0
BBX 9 12 0 -2
BITMAP
0000
0100
0100
0100
0200
0400
0800
1000
2000
4000
0000
0000
ENDCHAR
STARTCHAR C060
ENCODING 48
SWIDTH 692 0
DWIDTH 9 0
BBX 9 12 0 -2
BITMAP
0000
3e00
4100
4100
4100
5d00
4100
4100
4100
3e00
0000
0000
ENDCHAR
STARTCHAR C061
ENCODING 49
SWIDTH 692 0
DWIDTH 9 0
BBX 9 12 0 -2
BITMAP
0000
0800
2800
0800
0800
0800
0800
0800
0800
0800
0000
0000
ENDCHAR
STARTCHAR C062
ENCODING 50
SWIDTH 692 0
DWIDTH 9 0
BBX 9 12 0 -2
BITMAP
0000
7e00
0100
0100
0100
3e00
4000
4000
0000
7f00
0000
0000
ENDCHAR
STARTCHAR C063
ENCODING 51
SWIDTH 692 0
DWIDTH 9 0
BBX 9 12 0 -2
BITMAP
0000
7e00
0100
0100
0100
1e00
0100
0100
0100
7e00
0000
0000
ENDCHAR
STARTCHAR C064
ENCODING 52
SWIDTH 692 0
DWIDTH 9 0
BBX 9 12 0 -2
BITMAP
0000
4100
4100
4100
4100
3d00
0100
0100
0100
0100
0000
0000
ENDCHAR
STARTCHAR C065
ENCODING 53
SWIDTH 692 0
DWIDTH 9 0
BBX 9 12 0 -2
BITMAP
0000
7f00
0000
4000
4000
3e00
0100
0100
0100
7e00
0000
0000
ENDCHAR
STARTCHAR C066
ENCODING 54
SWIDTH 692 0
DWIDTH 9 0
BBX 9 12 0 -2
BITMAP
0000
3e00
4000
4000
5e00
4100
4100
4100
4100
3e00
0000
0000
ENDCHAR
STARTCHAR C067
ENCODING 55
SWIDTH 692 0
DWIDTH 9 0
BBX 9 12 0 -2
BITMAP
0000
7e00
0100
0100
0100
0100
0100
0100
0100
0100
0000
0000
ENDCHAR
STARTCHAR C070
ENCODING 56
SWIDTH 692 0
DWIDTH 9 0
BBX 9 12 0 -2
BITMAP
0000
3e00
4100
4100
4100
3e00
4100
4100
4100
3e00
0000
0000
ENDCHAR
STARTCHAR C071
ENCODING 57
SWIDTH 692 0
DWIDTH 9 0
BBX 9 12 0 -2
BITMAP
0000
3e00
4100
4100
4100
4100
3d00
0100
0100
7e00
0000
0000
ENDCHAR
STARTCHAR C072
ENCODING 58
SWIDTH 692 0
DWIDTH 9 0
BBX 9 12 0 -2
BITMAP
0000
0000
0800
0800
0000
0000
0000
0800
0800
0000
0000
0000
ENDCHAR
STARTCHAR C073
ENCODING 59
SWIDTH 692 0
DWIDTH 9 0
BBX 9 12 0 -2
BITMAP
0000
0000
0800
0800
0000
0000
0000
0800
0800
3000
0000
0000
ENDCHAR
STARTCHAR C074
ENCODING 60
SWIDTH 692 0
DWIDTH 9 0
BBX 9 12 0 -2
BITMAP
0000
0400
0400
0800
1000
2000
1000
0800
0400
0400
0000
0000
ENDCHAR
STARTCHAR C075
ENCODING 61
SWIDTH 692 0
DWIDTH 9 0
BBX 9 12 0 -2
BITMAP
0000
0000
0000
0000
7f00
0000
7f00
0000
0000
0000
0000
0000
ENDCHAR
STARTCHAR C076
ENCODING 62
SWIDTH 692 0
DWIDTH 9 0
BBX 9 12 0 -2
BITMAP
0000
1000
1000
0800
0400
0200
0400
0800
1000
1000
0000
0000
ENDCHAR
STARTCHAR C077
ENCODING 63
SWIDTH 692 0
DWIDTH 9 0
BBX 9 12 0 -2
BITMAP
0000
7e00
0100
0100
0100
0e00
1000
1000
0000
1000
0000
0000
ENDCHAR
STARTCHAR C100
ENCODING 64
SWIDTH 692 0
DWIDTH 9 0
BBX 9 12 0 -2
BITMAP
0000
3e00
4100
4500
4900
4900
4900
4600
4000
3e00
0000
0000
ENDCHAR
STARTCHAR C101
ENCODING 65
SWIDTH 692 0
DWIDTH 9 0
BBX 9 12 0 -2
BITMAP
0000
3e00
4100
4100
4100
4100
5d00
4100
4100
4100
0000
0000
ENDCHAR
STARTCHAR C102
ENCODING 66
SWIDTH 692 0
DWIDTH 9 0
BBX 9 12 0 -2
BITMAP
0000
5e00
4100
4100
4100
5e00
4100
4100
4100
5e00
0000
0000
ENDCHAR
STARTCHAR C103
ENCODING 67
SWIDTH 692 0
DWIDTH 9 0
BBX 9 12 0 -2
BITMAP
0000
3e00
4000
4000
4000
4000
4000
4000
4000
3e00
0000
0000
ENDCHAR
STARTCHAR C104
ENCODING 68
SWIDTH 692 0
DWIDTH 9 0
BBX 9 12 0 -2
BITMAP
0000
5e00
4100
4100
4100
4100
4100
4100
4100
5e00
0000
0000
ENDCHAR
STARTCHAR C105
ENCODING 69
SWIDTH 692 0
DWIDTH 9 0
BBX 9 12 0 -2
BITMAP
0000
3e00
4000
4000
4000
5c00
4000
4000
4000
3e00
0000
0000
ENDCHAR
STARTCHAR C106
ENCODING 70
SWIDTH 692 0
DWIDTH 9 0
BBX 9 12 0 -2
BITMAP
0000
3e00
4000
4000
4000
5c00
4000
4000
4000
4000
0000
0000
ENDCHAR
STARTCHAR C107
ENCODING 71
SWIDTH 692 0
DWIDTH 9 0
BBX 9 12 0 -2
BITMAP
0000
3e00
4000
4000
4000
4000
4d00
4100
4100
3e00
0000
0000
ENDCHAR
STARTCHAR C110
ENCODING 72
SWIDTH 692 0
DWIDTH 9 0
BBX 9 12 0 -2
BITMAP
0000
4100
4100
4100
4100
5d00
4100
4100
4100
4100
0000
0000
ENDCHAR
STARTCHAR C111
ENCODING 73
SWIDTH 692 0
DWIDTH 9 0
BBX 9 12 0 -2
BITMAP
0000
0800
0800
0800
0800
0800
0800
0800
0800
0800
0000
0000
ENDCHAR
STARTCHAR C112
ENCODING 74
SWIDTH 692 0
DWIDTH 9 0
BBX 9 12 0 -2
BITMAP
0000
0200
0200
0200
0200
0200
0200
0200
4200
3c00
0000
0000
ENDCHAR
STARTCHAR C113
ENCODING 75
SWIDTH 692 0
DWIDTH 9 0
BBX 9 12 0 -2
BITMAP
0000
4100
4100
4100
4100
5e00
4100
4100
4100
4100
0000
0000
ENDCHAR
STARTCHAR C114
ENCODING 76
SWIDTH 692 0
DWIDTH 9 0
BBX 9 12 0 -2
BITMAP
0000
4000
4000
4000
4000
4000
4000
4000
4000
3f00
0000
0000
ENDCHAR
STARTCHAR C115
ENCODING 77
SWIDTH 692 0
DWIDTH 9 0
BBX 9 12 0 -2
BITMAP
0000
3e00
4100
4900
4900
4900
4900
4100
4100
4100
0000
0000
ENDCHAR
STARTCHAR C116
ENCODING 78
SWIDTH 692 0
DWIDTH 9 0
BBX 9 12 0 -2
BITMAP
0000
3e00
4100
4100
4100
4100
4100
4100
4100
4100
0000
0000
ENDCHAR
STARTCHAR C117
ENCODING 79
SWIDTH 692 0
DWIDTH 9 0
BBX 9 12 0 -2
BITMAP
0000
3e00
4100
4100
4100
4100
4100
4100
4100
3e00
0000
0000
ENDCHAR
STARTCHAR C120
ENCODING 80
SWIDTH 692 0
DWIDTH 9 0
BBX 9 12 0 -2
BITMAP
0000
5e00
4100
4100
4100
5e00
4000
4000
4000
4000
0000
0000
ENDCHAR
STARTCHAR C121
ENCODING 81
SWIDTH 692 0
DWIDTH 9 0
BBX 9 12 0 -2
BITMAP
0000
3e00
4100
4100
4100
4100
4500
4500
4100
3e00
0000
0000
ENDCHAR
STARTCHAR C122
ENCODING 82
SWIDTH 692 0
DWIDTH 9 0
BBX 9 12 0 -2
BITMAP
0000
5e00
4100
4100
4100
5e00
4100
4100
4100
4100
0000
0000
ENDCHAR
STARTCHAR C123
ENCODING 83
SWIDTH 692 0
DWIDTH 9 0
BBX 9 12 0 -2
BITMAP
0000
3f00
4000
4000
4000
3e00
0100
0100
0100
7e00
0000
0000
ENDCHAR
STARTCHAR C124
ENCODING 84
SWIDTH 692 0
DWIDTH 9 0
BBX 9 12 0 -2
BITMAP
0000
7f00
0000
0800
0800
0800
0800
0800
0800
0800
0000
0000
ENDCHAR
STARTCHAR C125
ENCODING 85
SWIDTH 692 0
DWIDTH 9 0
BBX 9 12 0 -2
BITMAP
0000
4100
4100
4100
4100
4100
4100
4100
4100
3e00
0000
0000
ENDCHAR
STARTCHAR C126
ENCODING 86
SWIDTH 692 0
DWIDTH 9 0
BBX 9 12 0 -2
BITMAP
0000
4100
4100
4100
4100
4100
4200
4400
4800
5000
0000
0000
ENDCHAR
STARTCHAR C127
ENCODING 87
SWIDTH 692 0
DWIDTH 9 0
BBX 9 12 0 -2
BITMAP
0000
4100
4100
4100
4100
4900
4900
4900
4100
3e00
0000
0000
ENDCHAR
STARTCHAR C130
ENCODING 88
SWIDTH 692 0
DWIDTH 9 0
BBX 9 12 0 -2
BITMAP
0000
4100
4100
4100
4100
3e00
4100
4100
4100
4100
0000
0000
ENDCHAR
STARTCHAR C131
ENCODING 89
SWIDTH 692 0
DWIDTH 9 0
BBX 9 12 0 -2
BITMAP
0000
4100
4100
4100
4100
3e00
0000
0800
0800
0800
0000
0000
ENDCHAR
STARTCHAR C132
ENCODING 90
SWIDTH 692 0
DWIDTH 9 0
BBX 9 12 0 -2
BITMAP
0000
7e00
0100
0200
0400
0800
1000
2000
4000
3f00
0000
0000
ENDCHAR
STARTCHAR C133
ENCODING 91
SWIDTH 692 0
DWIDTH 9 0
BBX 9 12 0 -2
BITMAP
0000
0e00
1000
1000
1000
1000
1000
1000
1000
0e00
0000
0000
ENDCHAR
STARTCHAR C134
ENCODING 92
SWIDTH 692 0
DWIDTH 9 0
BBX 9 12 0 -2
BITMAP
0000
4000
4000
4000
2000
1000
0800
0400
0200
0100
0000
0000
ENDCHAR
STARTCHAR C135
ENCODING 93
SWIDTH 692 0
DWIDTH 9 0
BBX 9 12 0 -2
BITMAP
0000
3800
0400
0400
0400
0400
0400
0400
0400
3800
0000
0000
ENDCHAR
STARTCHAR C136
ENCODING 94
SWIDTH 692 0
DWIDTH 9 0
BBX 9 12 0 -2
BITMAP
0000
1c00
2200
2200
0000
0000
0000
0000
0000
0000
0000
0000
ENDCHAR
STARTCHAR C137
ENCODING 95
SWIDTH 692 0
DWIDTH 9 0
BBX 9 12 0 -2
BITMAP
0000
0000
0000
0000
0000
0000
0000
0000
0000
0000
ff80
0000
ENDCHAR
STARTCHAR C140
ENCODING 96
SWIDTH 692 0
DWIDTH 9 0
BBX 9 12 0 -2
BITMAP
0000
0400
0400
0400
0300
0000
0000
0000
0000
0000
0000
0000
ENDCHAR
STARTCHAR C141
ENCODING 97
SWIDTH 692 0
DWIDTH 9 0
BBX 9 12 0 -2
BITMAP
0000
0000
0000
0000
3c00
0200
3a00
4200
4200
3c00
0000
0000
ENDCHAR
STARTCHAR C142
ENCODING 98
SWIDTH 692 0
DWIDTH 9 0
BBX 9 12 0 -2
BITMAP
0000
0000
4000
4000
5c00
4200
4200
4200
4200
3c00
0000
0000
ENDCHAR
STARTCHAR C143
ENCODING 99
SWIDTH 692 0
DWIDTH 9 0
BBX 9 12 0 -2
BITMAP
0000
0000
0000
0000
3c00
4000
4000
4000
4000
3c00
0000
0000
ENDCHAR
STARTCHAR C144
ENCODING 100
SWIDTH 692 0
DWIDTH 9 0
BBX 9 12 0 -2
BITMAP
0000
0000
0200
0200
3a00
4200
4200
4200
4200
3c00
0000
0000
ENDCHAR
STARTCHAR C145
ENCODING 101
SWIDTH 692 0
DWIDTH 9 0
BBX 9 12 0 -2
BITMAP
0000
0000
0000
0000
3c00
4200
4200
5c00
4000
3c00
0000
0000
ENDCHAR
STARTCHAR C146
ENCODING 102
SWIDTH 692 0
DWIDTH 9 0
BBX 9 12 0 -2
BITMAP
0000
0000
0c00
1000
1000
1000
5400
1000
1000
1000
0000
0000
ENDCHAR
STARTCHAR C147
ENCODING 103
SWIDTH 692 0
DWIDTH 9 0
BBX 9 12 0 -2
BITMAP
0000
0000
0000
0000
3c00
4200
4200
4200
4200
3a00
0200
3c00
ENDCHAR
STARTCHAR C150
ENCODING 104
SWIDTH 692 0
DWIDTH 9 0
BBX 9 12 0 -2
BITMAP
0000
0000
4000
4000
5c00
4200
4200
4200
4200
4200
0000
0000
ENDCHAR
STARTCHAR C151
ENCODING 105
SWIDTH 692 0
DWIDTH 9 0
BBX 9 12 0 -2
BITMAP
0000
0000
0800
0000
0800
0800
0800
0800
0800
0800
0000
0000
ENDCHAR
STARTCHAR C152
ENCODING 106
SWIDTH 692 0
DWIDTH 9 0
BBX 9 12 0 -2
BITMAP
0000
0000
0800
0000
0800
0800
0800
0800
0800
0800
0800
3000
ENDCHAR
STARTCHAR C153
ENCODING 107
SWIDTH 692 0
DWIDTH 9 0
BBX 9 12 0 -2
BITMAP
0000
0000
4000
4000
4200
4200
5c00
4200
4200
4200
0000
0000
ENDCHAR
STARTCHAR C154
ENCODING 108
SWIDTH 692 0
DWIDTH 9 0
BBX 9 12 0 -2
BITMAP
0000
0000
0800
0800
0800
0800
0800
0800
0800
0800
0000
0000
ENDCHAR
STARTCHAR C155
ENCODING 109
SWIDTH 692 0
DWIDTH 9 0
BBX 9 12 0 -2
BITMAP
0000
0000
0000
0000
3e00
4100
4900
4900
4900
4900
0000
0000
ENDCHAR
STARTCHAR C156
ENCODING 110
SWIDTH 692 0
DWIDTH 9 0
BBX 9 12 0 -2
BITMAP
0000
0000
0000
0000
3c00
4200
4200
4200
4200
4200
0000
0000
ENDCHAR
STARTCHAR C157
ENCODING 111
SWIDTH 692 0
DWIDTH 9 0
BBX 9 12 0 -2
BITMAP
0000
0000
0000
0000
3c00
4200
4200
4200
4200
3c00
0000
0000
ENDCHAR
STARTCHAR C160
ENCODING 112
SWIDTH 692 0
DWIDTH 9 0
BBX 9 12 0 -2
BITMAP
0000
0000
0000
0000
3c00
4200
4200
4200
4200
5c00
4000
4000
ENDCHAR
STARTCHAR C161
ENCODING 113
SWIDTH 692 0
DWIDTH 9 0
BBX 9 12 0 -2
BITMAP
0000
0000
0000
0000
3c00
4200
4200
4200
4200
3a00
0200
0200
ENDCHAR
STARTCHAR C162
ENCODING 114
SWIDTH 692 0
DWIDTH 9 0
BBX 9 12 0 -2
BITMAP
0000
0000
0000
0000
0c00
1000
1000
1000
1000
1000
0000
0000
ENDCHAR
STARTCHAR C163
ENCODING 115
SWIDTH 692 0
DWIDTH 9 0
BBX 9 12 0 -2
BITMAP
0000
0000
0000
0000
3e00
4000
3c00
0200
0200
7c00
0000
0000
ENDCHAR
STARTCHAR C164
ENCODING 116
SWIDTH 692 0
DWIDTH 9 0
BBX 9 12 0 -2
BITMAP
0000
0000
1000
1000
1000
5400
1000
1000
1000
0c00
0000
0000
ENDCHAR
STARTCHAR C165
ENCODING 117
SWIDTH 692 0
DWIDTH 9 0
BBX 9 12 0 -2
BITMAP
0000
0000
0000
0000
4200
4200
4200
4200
4200
3c00
0000
0000
ENDCHAR
STARTCHAR C166
ENCODING 118
SWIDTH 692 0
DWIDTH 9 0
BBX 9 12 0 -2
BITMAP
0000
0000
0000
0000
4200
4200
4200
4400
4800
5000
0000
0000
ENDCHAR
STARTCHAR C167
ENCODING 119
SWIDTH 692 0
DWIDTH 9 0
BBX 9 12 0 -2
BITMAP
0000
0000
0000
0000
4900
4900
4900
4900
4100
3e00
0000
0000
ENDCHAR
STARTCHAR C170
ENCODING 120
SWIDTH 692 0
DWIDTH 9 0
BBX 9 12 0 -2
BITMAP
0000
0000
0000
0000
4200
4200
3c00
4200
4200
4200
0000
0000
ENDCHAR
STARTCHAR C171
ENCODING 121
SWIDTH 692 0
DWIDTH 9 0
BBX 9 12 0 -2
BITMAP
0000
0000
0000
0000
4200
4200
4200
4200
4200
3a00
0200
3c00
ENDCHAR
STARTCHAR C172
ENCODING 122
SWIDTH 692 0
DWIDTH 9 0
BBX 9 12 0 -2
BITMAP
0000
0000
0000
0000
7c00
0200
0c00
3000
4000
3e00
0000
0000
ENDCHAR
STARTCHAR C173
ENCODING 123
SWIDTH 692 0
DWIDTH 9 0
BBX 9 12 0 -2
BITMAP
0000
0e00
1000
1000
1000
2000
1000
1000
1000
0e00
0000
0000
ENDCHAR
STARTCHAR C174
ENCODING 124
SWIDTH 692 0
DWIDTH 9 0
BBX 9 12 0 -2
BITMAP
0000
0800
0800
0800
0800
0000
0800
0800
0800
0800
0000
0000
ENDCHAR
STARTCHAR C175
ENCODING 125
SWIDTH 692 0
DWIDTH 9 0
BBX 9 12 0 -2
BITMAP
0000
3800
0400
0400
0400
0200
0400
0400
0400
3800
0000
0000
ENDCHAR
STARTCHAR C176
ENCODING 126
SWIDTH 692 0
DWIDTH 9 0
BBX 9 12 0 -2
BITMAP
0000
0200
1c00
2000
0000
0000
0000
0000
0000
0000
0000
0000
ENDCHAR
ENDFONT
